<svg version="1.1" xmlns="http://www.w3.org/2000/svg" xmlns:xlink="http://www.w3.org/1999/xlink" width="512.000000pt" height="512.000000pt" viewBox="0,0,256,256"><g fill="#5f7adb" fill-rule="nonzero" stroke="none" stroke-width="1" stroke-linecap="butt" stroke-linejoin="miter" stroke-miterlimit="10" stroke-dasharray="" stroke-dashoffset="0" font-family="none" font-weight="none" font-size="none" text-anchor="none" style="mix-blend-mode: normal"><g transform="translate(-0.00366,0.09421) scale(0.5,0.5)"><g transform="translate(0,512) scale(0.1,-0.1)"><path d="M2433,4100c-615,-51 -1155,-477 -1341,-1060c-260,-816 174,-1677 980,-1945c560,-185 1161,-43 1578,375c322,321 483,752 449,1203c-10,141 -30,242 -75,377c-172,519 -621,917 -1157,1025c-70,14 -290,37 -327,33c-8,0 -56,-4 -107,-8z"></path></g></g></g></svg>