<svg version="1.1" xmlns="http://www.w3.org/2000/svg" xmlns:xlink="http://www.w3.org/1999/xlink" width="512.000000pt" height="512.000000pt" viewBox="0,0,256,256"><g fill="#26292b" fill-rule="nonzero" stroke="none" stroke-width="1" stroke-linecap="butt" stroke-linejoin="miter" stroke-miterlimit="10" stroke-dasharray="" stroke-dashoffset="0" font-family="none" font-weight="none" font-size="none" text-anchor="none" style="mix-blend-mode: normal"><g transform="translate(0.05192,-0.06629) scale(0.5,0.5)"><g transform="translate(0,512) scale(0.1,-0.1)"><path d="M3329,4410c-226,-41 -434,-148 -584,-299l-69,-71h-1198h-1197l-20,-26l-21,-27v-1308v-1309h-60c-101,0 -100,3 -100,-267c0,-200 3,-233 19,-268c23,-51 65,-93 116,-116c38,-18 118,-19 1926,-19h1887l53,28c42,21 61,40 87,82l32,54v237c0,234 0,238 -22,253c-14,10 -44,16 -80,16h-58v483v483l39,22l39,22l94,-117c187,-233 336,-371 473,-439c109,-54 185,-49 261,18c120,105 122,210 9,383c-48,74 -271,298 -384,385c-46,36 -93,72 -104,81c-19,15 -18,17 26,100c140,258 170,580 80,859c-115,358 -426,647 -797,742c-90,22 -362,34 -447,18zM3740,4239c173,-42 347,-145 468,-274c79,-84 115,-137 168,-249c157,-332 108,-720 -128,-1012c-111,-138 -311,-266 -493,-315c-117,-32 -365,-32 -480,-1c-338,93 -594,351 -687,692c-32,120 -32,356 0,475c104,380 412,650 805,705c90,13 249,3 347,-21zM2509,3788l-50,-103l-834,-5l-834,-5l-23,-23l-23,-23v-1000v-1001l28,-24l28,-24l1346,2l1345,3l19,24c18,22 19,42 19,306v283l68,7c56,6 129,20 270,52l22,5l-2,-443l-3,-444l-1742,-3l-1743,-2v1260v1260h1080h1079zM2060,2630v-890h-580h-580v890v890h580h580zM2416,3498c-3,-13 -9,-72 -12,-133c-16,-296 93,-593 295,-807l54,-58h-145c-132,0 -148,-2 -172,-21c-37,-29 -37,-89 1,-119c26,-20 36,-21 282,-20l256,2l77,-36c83,-38 178,-68 271,-86l57,-11v-203c0,-112 -3,-218 -6,-235l-6,-31h-579h-579v890v890h106c105,0 106,0 100,-22zM4475,2494c134,-106 319,-289 369,-365c20,-31 39,-71 42,-90c5,-29 1,-39 -30,-68c-35,-34 -37,-35 -74,-22c-103,38 -280,201 -439,406l-93,120l52,52c29,29 55,53 58,53c3,0 55,-39 115,-86zM4050,1061c0,-141 -2,-161 -19,-182l-19,-24l-1854,-3c-1310,-1 -1861,1 -1879,9c-42,17 -49,47 -49,209v150h1910h1910z"></path><path d="M3755,3945c-15,-15 -25,-36 -25,-54c0,-31 4,-36 117,-116c74,-53 135,-127 175,-212c44,-94 58,-157 58,-273c0,-115 10,-143 54,-154c37,-9 73,9 92,46c14,27 16,51 11,148c-6,133 -28,215 -90,335c-70,136 -259,305 -341,305c-15,0 -38,-11 -51,-25z"></path><path d="M1146,3309c-34,-27 -37,-86 -5,-115c20,-18 43,-19 338,-22c310,-3 318,-2 344,18c38,30 38,90 1,119c-26,20 -38,21 -339,21c-301,0 -313,-1 -339,-21z"></path><path d="M1146,2889c-32,-25 -35,-75 -7,-110l19,-24h325c305,0 326,1 346,19c32,29 29,88 -5,115c-26,20 -38,21 -339,21c-301,0 -313,-1 -339,-21z"></path><path d="M1146,2479c-34,-27 -37,-86 -5,-115c20,-18 43,-19 338,-22c310,-3 318,-2 344,18c38,30 38,90 1,119c-26,20 -38,21 -339,21c-301,0 -313,-1 -339,-21z"></path><path d="M1170,2083c-57,-21 -70,-96 -24,-132c26,-20 38,-21 339,-21c301,0 313,1 339,21c32,25 35,75 7,110l-19,24l-314,2c-172,1 -320,-1 -328,-4z"></path><path d="M2436,2069c-20,-15 -26,-29 -26,-57c0,-81 6,-82 370,-82h311l24,25c35,34 34,86 -1,114c-26,20 -38,21 -339,21c-301,0 -313,-1 -339,-21z"></path><path d="M471,1093c-34,-29 -37,-74 -8,-109c23,-27 30,-29 95,-29c85,0 112,18 112,74c0,42 -7,54 -37,70c-35,18 -137,14 -162,-6z"></path><path d="M925,1085c-32,-31 -32,-66 -1,-102c22,-26 30,-28 96,-28c63,0 74,3 91,24c28,35 25,85 -7,110c-21,16 -41,21 -91,21c-55,0 -67,-4 -88,-25z"></path><path d="M1386,1089c-34,-27 -36,-77 -2,-108c42,-40 147,-40 187,0c27,27 24,74 -6,104c-21,21 -33,25 -88,25c-50,0 -70,-5 -91,-21z"></path></g></g></g></svg>