<svg version="1.1" xmlns="http://www.w3.org/2000/svg" xmlns:xlink="http://www.w3.org/1999/xlink" width="512.000000pt" height="512.000000pt" viewBox="0,0,256,256"><g fill="#5f7adb" fill-rule="nonzero" stroke="none" stroke-width="1" stroke-linecap="butt" stroke-linejoin="miter" stroke-miterlimit="10" stroke-dasharray="" stroke-dashoffset="0" font-family="none" font-weight="none" font-size="none" text-anchor="none" style="mix-blend-mode: normal"><g transform="translate(0.05713,0.04075) scale(0.5,0.5)"><g transform="translate(0,512) scale(0.1,-0.1)"><path d="M4755,5113c-41,-11 -4522,-1454 -4562,-1469c-57,-21 -129,-87 -161,-148c-36,-70 -38,-188 -4,-257c25,-52 82,-113 127,-137c17,-8 433,-149 925,-314l894,-298l56,39c349,243 1598,1109 1609,1116c20,12 54,62 -559,-815c-306,-437 -564,-807 -574,-822c-18,-27 -18,-28 279,-920c164,-491 306,-909 315,-928c25,-49 84,-105 139,-132c69,-34 187,-32 257,4c61,32 127,104 148,161c9,23 343,1057 743,2297c692,2148 727,2259 727,2330c1,122 -55,214 -160,266c-53,26 -153,40 -199,27z"></path></g></g></g></svg>