<svg version="1.1" xmlns="http://www.w3.org/2000/svg" xmlns:xlink="http://www.w3.org/1999/xlink" width="512.000000pt" height="512.000000pt" viewBox="0,0,256,256"><g fill="#26292b" fill-rule="nonzero" stroke="none" stroke-width="1" stroke-linecap="butt" stroke-linejoin="miter" stroke-miterlimit="10" stroke-dasharray="" stroke-dashoffset="0" font-family="none" font-weight="none" font-size="none" text-anchor="none" style="mix-blend-mode: normal"><g transform="translate(-0.03367,-0.05967) scale(0.5,0.5)"><g transform="translate(0,512) scale(0.1,-0.1)"><path d="M3195,4642c-16,-11 -108,-98 -202,-194l-173,-175v-53v-53l193,-194c190,-191 193,-193 235,-193c57,0 96,21 116,65c28,58 15,102 -50,166c-30,29 -54,57 -54,61c0,4 24,-1 53,-11c196,-68 343,-214 413,-413l14,-40l-56,51c-82,75 -148,85 -203,30c-33,-33 -46,-85 -31,-125c16,-43 357,-382 397,-395c66,-21 86,-8 281,184c130,130 185,190 191,214c18,65 -21,135 -85,151c-56,15 -83,3 -158,-69c-41,-38 -76,-69 -80,-69c-3,0 -6,11 -6,24c0,40 -39,156 -82,241c-115,233 -328,403 -585,468l-92,23l59,59c73,72 94,113 85,164c-14,81 -112,126 -180,83z"></path><path d="M358,4500c-111,-19 -220,-91 -284,-187c-78,-117 -73,8 -73,-1819c-1,-1056 3,-1650 9,-1684c31,-161 154,-294 314,-336c76,-20 4396,-20 4472,0c160,42 283,175 314,336c14,72 14,1659 0,1731c-30,156 -136,278 -288,330c-53,18 -102,19 -1218,19h-1163l-4,633c-3,561 -5,637 -20,681c-55,158 -190,273 -348,296c-78,12 -1644,11 -1711,0zM2077,4190c47,-28 63,-67 63,-155v-75h-920h-920v84c0,77 2,87 27,116c14,18 36,36 47,40c12,5 392,9 846,9c801,1 826,0 857,-19zM2140,3280v-390h-358c-326,0 -364,-2 -414,-19c-151,-52 -258,-175 -288,-330c-6,-32 -10,-260 -10,-567v-514h-385h-385v1105v1105h920h920zM1780,1674v-926l-162,4c-140,3 -167,6 -191,22c-60,40 -57,0 -57,903c0,813 0,829 20,861c32,53 65,61 238,62h152zM4280,1675v-925l-1102,2l-1103,3l-3,923l-2,922h1105h1105zM4744,2586c18,-7 42,-26 54,-41l22,-28v-834c0,-910 3,-869 -57,-909c-21,-14 -47,-18 -108,-19h-80l-3,910c-1,501 0,916 3,923c6,17 126,16 169,-2zM1073,983c2,-104 8,-198 12,-211l8,-23l-354,3c-328,3 -356,4 -382,22c-51,34 -57,60 -57,236v160h384h384z"></path><path d="M1535,1800c-55,-22 -89,-93 -75,-155c32,-143 238,-135 266,11c8,43 -25,113 -65,137c-30,18 -92,22 -126,7z"></path></g></g></g></svg>