<svg version="1.1" xmlns="http://www.w3.org/2000/svg" xmlns:xlink="http://www.w3.org/1999/xlink" width="512.000000pt" height="512.000000pt" viewBox="0,0,256,256"><g fill="#26292b" fill-rule="nonzero" stroke="none" stroke-width="1" stroke-linecap="butt" stroke-linejoin="miter" stroke-miterlimit="10" stroke-dasharray="" stroke-dashoffset="0" font-family="none" font-weight="none" font-size="none" text-anchor="none" style="mix-blend-mode: normal"><g transform="translate(0,0.01916) scale(0.5,0.5)"><g transform="translate(0,512) scale(0.1,-0.1)"><path d="M1554,5110c-143,-26 -266,-92 -380,-205c-90,-89 -142,-173 -182,-293c-22,-67 -26,-94 -25,-212c0,-119 3,-144 26,-215c35,-105 88,-194 165,-277l64,-68l-560,-2c-548,-3 -561,-3 -588,-24c-15,-11 -37,-33 -48,-48l-21,-27v-1819v-1819l21,-27c11,-15 33,-37 48,-48l27,-21h2459h2459l27,21c15,11 37,33 48,48l21,27v1819v1819l-21,27c-44,60 -67,69 -182,72l-108,4l36,71c33,66 35,77 35,166c0,87 -3,102 -32,163c-44,93 -100,151 -191,196c-72,35 -81,37 -171,37c-87,0 -102,-3 -163,-32c-91,-43 -151,-101 -193,-187c-42,-85 -54,-168 -35,-254c11,-56 11,-61 -14,-110l-26,-52h-653h-652l-190,136c-105,74 -194,139 -198,143c-5,5 2,42 15,82c19,62 23,95 22,204c-1,112 -4,141 -27,210c-38,115 -91,199 -182,290c-139,140 -284,203 -475,210c-58,2 -128,0 -156,-5zM1786,4949c98,-17 210,-78 288,-155c219,-220 219,-568 0,-788c-110,-110 -235,-161 -394,-161c-163,0 -282,49 -396,163c-269,269 -193,722 149,891c118,58 225,73 353,50zM4554,4308c86,-26 166,-136 166,-228c0,-124 -116,-240 -240,-240c-63,0 -114,23 -165,75c-102,101 -102,229 0,330c70,71 145,90 239,63zM2683,3689l396,-283l-57,-62c-31,-34 -63,-60 -69,-58c-7,2 -190,130 -407,285l-395,282l57,63c31,35 62,62 68,60c5,-2 188,-131 407,-287zM4326,3714c13,-3 24,-10 24,-15c0,-5 -38,-86 -86,-180l-85,-171l-57,53c-31,29 -61,56 -67,61c-6,5 21,69 70,167l78,159l50,-34c27,-19 60,-37 73,-40zM2492,3414c205,-147 375,-268 377,-270c3,-2 -7,-39 -22,-82c-67,-197 -62,-372 16,-568l34,-85l-209,-170l-209,-170l-122,60c-176,87 -255,106 -442,105c-165,-1 -239,-15 -376,-74c-83,-35 -231,-130 -254,-163c-22,-32 -19,-74 10,-102c35,-36 71,-32 135,16c161,121 345,178 534,166c261,-17 484,-147 627,-365c88,-134 124,-258 124,-432c0,-226 -75,-408 -231,-564c-156,-156 -338,-231 -564,-231c-226,0 -408,75 -564,231c-245,244 -305,623 -147,931c26,53 27,83 1,111c-51,54 -106,33 -152,-58c-95,-190 -122,-445 -69,-651c46,-177 127,-318 260,-449c130,-129 277,-212 457,-257c105,-26 343,-23 449,6c149,40 312,130 420,231l40,37l433,-78c239,-43 435,-79 436,-81c54,-90 112,-143 202,-185c51,-24 71,-28 155,-28c90,0 99,2 171,37c91,45 147,103 191,196c29,61 32,76 32,162c0,86 -3,101 -32,162c-43,91 -101,151 -187,193c-125,62 -258,58 -372,-12l-59,-35l-363,63l-364,64l7,30c27,137 13,333 -36,474c-17,47 -31,91 -32,98c-2,9 293,258 440,370l32,24l68,-24c228,-83 491,-52 695,82c184,120 313,311 352,521l12,65l282,3l282,2v-1280v-1280h-2400h-2400v1280v1280h1255h1256l24,25c33,32 33,78 0,110l-24,25h-1256h-1255v400v400h980h979zM3935,3610l-35,-69l-42,15c-175,63 -375,56 -560,-18l-83,-34l-110,80c-60,43 -114,83 -119,87c-6,5 207,9 487,9h497zM4960,3280v-400l-282,2l-282,3l-12,65c-13,71 -55,190 -81,229c-15,24 -12,32 103,263l119,238h217h218zM3735,3425c302,-63 519,-350 502,-661c-15,-264 -197,-496 -452,-577c-99,-31 -271,-31 -370,0c-163,52 -309,175 -383,323c-95,189 -95,390 -2,576c132,262 417,399 705,339zM3118,2160c1,-6 -393,-323 -406,-328c-5,-1 -17,9 -26,23c-10,15 -34,44 -53,66c-20,22 -34,41 -32,43c2,1 91,73 198,160l194,157l62,-58c35,-32 63,-60 63,-63zM3160,859c162,-28 298,-54 302,-58c4,-3 1,-31 -7,-61c-8,-30 -15,-68 -15,-83c0,-22 -4,-27 -17,-23c-10,3 -162,30 -338,61c-176,31 -328,58 -337,61c-16,5 -13,15 23,85c37,75 42,80 67,75c15,-3 160,-29 322,-57zM3914,868c86,-26 166,-136 166,-228c0,-124 -116,-240 -240,-240c-124,0 -240,116 -240,240c0,63 23,114 75,165c70,71 145,90 239,63z"></path><path d="M1633,4829c-145,-27 -238,-184 -189,-321l13,-36l-45,-38c-26,-21 -54,-58 -68,-88c-21,-46 -24,-65 -24,-188c0,-193 -31,-178 365,-178h312l22,24c21,22 22,34 24,157c2,122 0,138 -22,182c-13,26 -44,66 -70,89l-48,40l13,37c62,172 -99,355 -283,320zM1715,4666c76,-32 76,-130 -1,-162c-29,-12 -39,-12 -68,0c-75,31 -77,129 -3,161c40,18 32,17 72,1zM1855,4306c24,-24 40,-90 33,-137l-3,-24l-202,-3l-203,-2v68c0,59 3,73 25,96c24,26 25,26 175,26c146,0 152,-1 175,-24z"></path><path d="M480,3507c-19,-6 -58,-34 -85,-62c-71,-70 -91,-145 -63,-239c16,-55 99,-138 154,-154c94,-28 169,-8 239,63c98,97 101,222 8,325c-65,72 -158,97 -253,67zM615,3335c50,-49 15,-135 -55,-135c-41,0 -80,39 -80,80c0,41 39,80 80,80c19,0 40,-9 55,-25z"></path><path d="M1120,3507c-19,-6 -58,-34 -85,-62c-71,-70 -91,-145 -63,-239c16,-55 99,-138 154,-154c94,-28 169,-8 239,63c98,97 101,222 8,325c-65,72 -158,97 -253,67zM1255,3335c50,-49 15,-135 -55,-135c-41,0 -80,39 -80,80c0,41 39,80 80,80c19,0 40,-9 55,-25z"></path><path d="M1760,3507c-49,-16 -133,-102 -148,-153c-28,-94 -8,-169 63,-239c51,-52 102,-75 165,-75c63,0 114,23 165,75c98,97 101,222 8,325c-65,72 -158,97 -253,67zM1895,3335c50,-49 15,-135 -55,-135c-41,0 -80,39 -80,80c0,41 39,80 80,80c19,0 40,-9 55,-25z"></path><path d="M1845,1831c-92,-24 -173,-90 -215,-176c-34,-71 -35,-201 -2,-262c12,-23 22,-45 22,-47c0,-3 -17,-14 -37,-25c-53,-27 -118,-97 -145,-156c-21,-45 -23,-68 -26,-222l-4,-172l26,-26l25,-25h431h431l24,25c24,24 25,28 25,184c0,180 -10,225 -65,301c-18,25 -52,56 -74,70c-80,48 -76,41 -50,91c20,37 24,58 23,129c0,72 -4,93 -26,136c-39,75 -70,107 -137,143c-65,34 -164,49 -226,32zM1983,1666c103,-43 128,-177 48,-257c-65,-65 -157,-65 -222,0c-124,123 13,325 174,257zM2166,1174c60,-44 69,-67 72,-185l4,-109h-321h-321v93c1,127 31,189 110,220c8,3 108,5 222,4c191,-2 209,-4 234,-23z"></path><path d="M3519,3267c-151,-57 -225,-204 -174,-348l16,-44l-28,-20c-47,-33 -85,-78 -107,-125c-17,-37 -21,-69 -24,-190c-4,-136 -2,-147 18,-173l21,-27h359h359l21,27c20,26 22,37 18,178c-3,144 -4,152 -33,203c-28,51 -53,79 -103,112c-22,15 -23,16 -7,59c59,168 -59,346 -239,357c-36,3 -75,-1 -97,-9zM3683,3080c40,-45 38,-101 -7,-146c-28,-28 -42,-34 -76,-34c-80,0 -137,92 -99,161c34,64 132,75 182,19zM3763,2726c59,-25 72,-49 76,-142l3,-84h-241h-241v74c0,87 24,134 80,153c50,17 282,17 323,-1z"></path></g></g></g></svg>