<svg version="1.1" xmlns="http://www.w3.org/2000/svg" xmlns:xlink="http://www.w3.org/1999/xlink" width="512.000000pt" height="512.000000pt" viewBox="0,0,256,256"><g fill="#5f7adb" fill-rule="nonzero" stroke="none" stroke-width="1" stroke-linecap="butt" stroke-linejoin="miter" stroke-miterlimit="10" stroke-dasharray="" stroke-dashoffset="0" font-family="none" font-weight="none" font-size="none" text-anchor="none" style="mix-blend-mode: normal"><g transform="translate(0.01446,0.125) scale(0.5,0.5)"><g transform="translate(0,512) scale(0.1,-0.1)"><path d="M864,4999c-49,-14 -125,-69 -161,-117c-68,-90 -63,82 -61,-2342l3,-2195l28,-57c30,-62 83,-115 149,-150l43,-23h1695h1695l43,23c66,35 119,88 149,150l28,57l3,1955c1,1075 0,1971 -3,1990c-6,29 -57,86 -318,349c-172,172 -330,326 -351,342l-39,29l-1436,-1c-828,0 -1449,-5 -1467,-10zM3632,4593c3,-194 5,-211 26,-251c35,-66 88,-119 150,-149c56,-27 61,-28 260,-31l202,-3v-1870c0,-1593 -2,-1875 -14,-1904c-30,-70 101,-65 -1696,-65c-1797,0 -1666,-5 -1696,65c-12,29 -14,347 -14,2173c0,1565 3,2148 11,2171c7,18 26,41 43,52c30,18 72,19 1378,19h1347zM4033,4372c-159,-7 -193,24 -193,178v95l135,-135l135,-135z"></path><path d="M2435,3822c-206,-71 -330,-269 -295,-471c13,-75 39,-140 75,-187c14,-18 25,-35 25,-37c0,-2 -26,-20 -58,-40c-32,-20 -90,-70 -129,-110c-86,-91 -134,-182 -198,-378c-41,-125 -45,-145 -35,-175c6,-18 23,-43 37,-54c25,-20 39,-20 703,-20c664,0 678,0 703,20c14,11 31,36 37,54c10,30 6,50 -35,175c-64,196 -112,287 -198,378c-39,40 -97,90 -129,110c-32,20 -58,38 -58,40c0,2 14,24 31,49c86,125 98,279 34,421c-26,59 -101,144 -157,179c-97,62 -250,82 -353,46zM2665,3597c122,-68 141,-245 35,-341c-135,-122 -349,-26 -350,157c-1,165 168,264 315,184zM2655,2975c126,-27 235,-99 306,-202c25,-35 89,-187 89,-208c0,-3 -220,-5 -490,-5c-269,0 -490,2 -490,5c0,18 63,171 81,197c79,115 200,195 329,218c69,12 99,11 175,-5z"></path><path d="M1537,1790c-38,-30 -52,-80 -33,-123c28,-68 18,-67 576,-67c558,0 548,-1 576,67c19,43 5,93 -33,123c-25,19 -40,20 -543,20c-503,0 -518,-1 -543,-20z"></path><path d="M1553,1374c-29,-15 -63,-65 -63,-94c0,-7 7,-27 16,-45c32,-68 -24,-65 1054,-65c1078,0 1022,-3 1054,65c9,18 16,38 16,45c0,7 -7,27 -16,45c-32,68 24,65 -1056,65c-863,0 -977,-2 -1005,-16z"></path><path d="M1544,941c-44,-27 -60,-77 -41,-124c31,-72 -50,-67 1058,-67c984,0 997,0 1022,20c38,30 52,80 33,123c-29,71 34,67 -1058,67c-952,0 -984,-1 -1014,-19z"></path></g></g></g></svg>