<svg version="1.1" xmlns="http://www.w3.org/2000/svg" xmlns:xlink="http://www.w3.org/1999/xlink" width="512.000000pt" height="512.000000pt" viewBox="0,0,256,256"><g fill="#26292b" fill-rule="nonzero" stroke="none" stroke-width="1" stroke-linecap="butt" stroke-linejoin="miter" stroke-miterlimit="10" stroke-dasharray="" stroke-dashoffset="0" font-family="none" font-weight="none" font-size="none" text-anchor="none" style="mix-blend-mode: normal"><g transform="scale(0.5,0.5)"><g transform="translate(0,512) scale(0.1,-0.1)"><path d="M145,4776c-60,-28 -97,-66 -124,-126c-20,-45 -21,-56 -21,-1770v-1725l24,-50c28,-60 66,-97 126,-124c44,-20 60,-21 1188,-21h1142v-240v-240h-635h-636l-24,-25c-33,-32 -33,-78 0,-110l24,-25h1351h1351l24,25c33,32 33,78 0,110l-24,25h-636h-635v240v240h1143h1142l50,24c60,28 97,66 124,126c20,45 21,56 21,1770c0,1714 -1,1725 -21,1770c-27,60 -64,98 -124,126l-50,24h-2365h-2365zM4935,4615c25,-24 25,-24 25,-240v-215h-2400h-2400v215c0,216 0,216 25,240l24,25h2351h2351zM4960,2585v-1416l-25,-24l-24,-25h-2351h-2351l-24,25l-25,24v1416v1415h2400h2400z"></path><path d="M3945,4455c-16,-15 -25,-36 -25,-55c0,-19 9,-40 25,-55c15,-16 36,-25 55,-25c19,0 40,9 55,25c16,15 25,36 25,55c0,19 -9,40 -25,55c-15,16 -36,25 -55,25c-19,0 -40,-9 -55,-25z"></path><path d="M4265,4455c-16,-15 -25,-36 -25,-55c0,-19 9,-40 25,-55c15,-16 36,-25 55,-25c19,0 40,9 55,25c16,15 25,36 25,55c0,19 -9,40 -25,55c-15,16 -36,25 -55,25c-19,0 -40,-9 -55,-25z"></path><path d="M4585,4455c-16,-15 -25,-36 -25,-55c0,-19 9,-40 25,-55c15,-16 36,-25 55,-25c19,0 40,9 55,25c16,15 25,36 25,55c0,19 -9,40 -25,55c-15,16 -36,25 -55,25c-19,0 -40,-9 -55,-25z"></path><path d="M1289,3393l-109,-107l-64,62c-67,64 -101,77 -137,49c-25,-19 -41,-57 -35,-81c3,-12 52,-67 109,-124c82,-81 110,-102 132,-102c23,0 56,27 173,143c79,78 148,152 153,164c11,28 -7,80 -31,93c-10,6 -33,10 -51,10c-27,0 -48,-16 -140,-107z"></path><path d="M1785,3335c-16,-15 -25,-36 -25,-55c0,-19 9,-40 25,-55l24,-25h1151h1151l24,25c16,15 25,36 25,55c0,19 -9,40 -25,55l-24,25h-1151h-1151z"></path><path d="M1289,2743l-109,-106l-64,61c-81,78 -129,84 -162,20c-24,-46 -10,-74 79,-166c85,-87 120,-112 158,-112c28,0 315,281 323,316c7,28 -16,79 -39,88c-53,20 -74,8 -186,-101z"></path><path d="M1785,2695c-16,-15 -25,-36 -25,-55c0,-19 9,-40 25,-55l24,-25h751h751l24,25c33,32 33,78 0,110l-24,25h-751h-751z"></path><path d="M985,2215c-43,-42 -34,-77 37,-151l61,-64l-61,-64c-71,-74 -80,-109 -37,-151c42,-43 77,-34 151,37l64,61l64,-61c74,-71 109,-80 151,-37c43,42 34,77 -37,151l-61,64l61,64c71,74 80,109 37,151c-42,43 -77,34 -151,-37l-64,-61l-64,61c-74,71 -109,80 -151,37z"></path><path d="M1785,2055c-16,-15 -25,-36 -25,-55c0,-19 9,-40 25,-55l24,-25h1151h1151l24,25c16,15 25,36 25,55c0,19 -9,40 -25,55l-24,25h-1151h-1151z"></path></g></g></g></svg>