<svg version="1.1" xmlns="http://www.w3.org/2000/svg" xmlns:xlink="http://www.w3.org/1999/xlink" width="512.000000pt" height="512.000000pt" viewBox="0,0,256,256"><g fill="#26292b" fill-rule="nonzero" stroke="none" stroke-width="1" stroke-linecap="butt" stroke-linejoin="miter" stroke-miterlimit="10" stroke-dasharray="" stroke-dashoffset="0" font-family="none" font-weight="none" font-size="none" text-anchor="none" style="mix-blend-mode: normal"><g transform="translate(0.04693,-0.03104) scale(0.5,0.5)"><g transform="translate(0,512) scale(0.1,-0.1)"><path d="M681,4174c-169,-45 -301,-180 -346,-351c-23,-87 -22,-2440 0,-2528c45,-172 179,-305 352,-350c86,-23 3660,-23 3746,0c173,45 307,178 352,350c13,52 15,215 15,1265c0,1050 -2,1213 -15,1265c-45,172 -179,305 -352,350c-85,22 -3669,21 -3752,-1zM4418,4014c76,-25 140,-79 181,-153c33,-61 35,-71 39,-178l5,-113h-2082h-2081v95c0,144 42,241 133,304c94,65 -50,60 1943,61c1641,0 1816,-2 1862,-16zM4638,2368l-3,-1043l-36,-65c-23,-43 -52,-78 -84,-102c-97,-74 58,-69 -1975,-66l-1825,3l-50,25c-64,31 -124,91 -155,155l-25,50l-3,1043l-2,1042h2080h2080z"></path><path d="M3177,3860c-59,-47 -30,-139 44,-140c71,-1 105,85 54,135c-29,30 -64,32 -98,5z"></path><path d="M3600,3852c-34,-34 -37,-50 -15,-91c24,-48 81,-56 120,-16c47,46 23,118 -42,131c-27,5 -37,1 -63,-24z"></path><path d="M4045,3868c-51,-29 -60,-84 -20,-123c48,-49 135,-15 135,52c-1,32 -15,55 -47,71c-27,15 -42,15 -68,0z"></path><path d="M2671,2893c-18,-15 -55,-137 -186,-617c-91,-330 -165,-608 -165,-618c0,-29 45,-68 78,-68c65,0 62,-7 238,630c90,327 163,604 163,615c0,24 -17,48 -46,63c-31,17 -57,15 -82,-5z"></path><path d="M1670,2519c-168,-109 -315,-211 -327,-225c-26,-28 -28,-49 -10,-81c10,-18 563,-388 647,-433c45,-24 110,17 110,69c0,17 -10,41 -22,55c-13,13 -135,96 -271,184l-248,161l53,34c250,160 438,284 461,305c35,33 37,80 4,110c-48,45 -68,36 -397,-179z"></path><path d="M3052,2697c-29,-31 -29,-77 1,-105c18,-17 315,-214 480,-319l38,-24l-253,-165c-139,-90 -261,-174 -270,-185c-37,-44 -12,-110 47,-125c30,-7 10,-19 402,235c289,188 314,210 299,259c-10,31 -37,51 -354,256c-327,212 -346,220 -390,173z"></path></g></g></g></svg>