<svg version="1.1" xmlns="http://www.w3.org/2000/svg" xmlns:xlink="http://www.w3.org/1999/xlink" width="512.000000pt" height="512.000000pt" viewBox="0,0,256,256"><g fill="#26292b" fill-rule="nonzero" stroke="none" stroke-width="1" stroke-linecap="butt" stroke-linejoin="miter" stroke-miterlimit="10" stroke-dasharray="" stroke-dashoffset="0" font-family="none" font-weight="none" font-size="none" text-anchor="none" style="mix-blend-mode: normal"><g transform="translate(0,-0.0131) scale(0.5,0.5)"><g transform="translate(0,512) scale(0.1,-0.1)"><path d="M1716,5105c-79,-28 -79,-28 -291,-480c-57,-121 -107,-240 -112,-265l-9,-45l-494,-5l-495,-5l-68,-32c-123,-59 -212,-172 -237,-303c-6,-34 -10,-525 -10,-1364c0,-1432 -2,-1369 57,-1478c35,-64 120,-143 186,-173c29,-14 84,-29 122,-35c41,-5 327,-10 688,-10c339,0 617,-2 617,-5c0,-17 -91,-682 -95,-692c-3,-10 -39,-13 -130,-13c-126,0 -127,0 -156,-29c-40,-40 -40,-89 0,-133l29,-33l1221,-3c1358,-3 1278,-6 1307,63c12,29 13,44 4,70c-19,56 -43,65 -185,65c-69,0 -125,3 -125,6c0,3 -20,154 -45,336c-25,182 -45,339 -45,349c0,18 22,19 618,19c360,0 646,5 687,10c38,6 93,21 122,35c66,30 151,109 186,173c59,109 57,46 57,1478c0,839 -4,1330 -10,1364c-25,131 -114,244 -237,303l-68,32l-442,3l-441,3l-203,342c-111,188 -212,356 -225,373c-50,68 -163,100 -255,73c-75,-23 -99,-55 -319,-429l-213,-360l-221,2l-220,3l-9,45c-5,25 -42,117 -83,205c-41,88 -105,225 -142,304c-75,163 -121,222 -187,240c-52,14 -81,13 -129,-4zM1831,4825c21,-47 39,-88 39,-90c0,-3 -38,-5 -85,-5c-47,0 -85,2 -85,4c0,10 81,176 86,176c3,0 23,-38 45,-85zM3608,4448c100,-169 182,-314 182,-322c0,-8 -30,-90 -67,-180l-68,-166h-340h-340l-67,165c-38,90 -68,172 -68,180c0,13 307,547 357,620c11,17 13,2 13,-103v-122l-38,-19c-128,-65 -183,-242 -118,-375c86,-175 307,-221 452,-93c147,130 121,377 -50,468l-46,24v124c0,69 4,121 8,116c5,-6 91,-148 190,-317zM2011,4444c21,-48 42,-97 45,-110l6,-24h-277h-277l6,24c3,13 24,62 45,110l40,86h186h186zM3353,4329c80,-36 54,-169 -33,-169c-42,0 -67,15 -85,51c-13,25 -14,37 -5,65c18,53 72,76 123,53zM1300,4010v-100h-362c-331,0 -367,-2 -404,-19c-51,-23 -99,-81 -113,-137c-8,-29 -11,-299 -11,-842c0,-904 -3,-869 74,-940c32,-30 57,-43 97,-51c39,-8 603,-11 2009,-9l1955,3l40,22c50,27 80,58 100,105c13,33 15,142 15,876v839l-23,44c-13,24 -43,58 -66,74l-43,30l-319,3c-175,1 -319,7 -319,11c0,5 14,41 30,79c17,39 30,80 30,92c0,21 0,21 394,18l394,-3l43,-30c27,-19 54,-50 71,-84l28,-53v-1114v-1114h-2360h-2360v1110c0,975 2,1115 15,1147c24,58 60,99 107,122c42,20 54,21 511,21h467zM1680,3960c0,-175 10,-213 62,-234c44,-19 83,-10 113,26c24,29 25,33 25,194v164h95h95l-2,-997l-3,-998h-90h-90l-5,473l-5,474l-28,24c-54,46 -132,25 -158,-43c-5,-14 -9,-220 -9,-479v-455l-87,3l-88,3l-3,998l-2,997h90h90zM2640,4088c0,-13 14,-54 30,-93c17,-38 30,-73 30,-77c0,-4 -97,-8 -215,-8h-215v100v100h185h185zM1300,2910v-800l-342,2l-343,3l-3,798l-2,797h345h345zM2706,3666c-114,-149 -69,-357 94,-441l30,-16v-549v-550h-280h-280v800v800h235h235zM4500,2910v-800h-350h-350v548v549l49,31c91,59 134,138 134,247c0,80 -25,145 -76,195l-31,30h312h312zM3757,3548c37,-37 37,-89 0,-126l-27,-27l-393,-3c-438,-4 -458,-1 -484,52c-26,55 0,110 60,128c12,3 201,6 419,5l398,-2zM3598,2653l-3,-538l-282,-3l-283,-2v540v540h285h285zM4920,1409c0,-56 -5,-119 -11,-140c-16,-50 -61,-105 -112,-132l-42,-22h-2195h-2195l-42,22c-51,27 -96,82 -112,132c-6,21 -11,84 -11,140v101h2360h2360zM3286,595c23,-171 45,-329 48,-352l6,-43h-780c-617,0 -780,3 -780,13c0,6 20,161 45,342c25,182 45,336 45,343c0,10 141,12 687,10l688,-3z"></path><path d="M1743,3505c-64,-27 -76,-110 -24,-157c43,-39 92,-38 132,1c50,51 37,130 -26,157c-41,17 -42,17 -82,-1z"></path><path d="M2486,1379c-36,-43 -35,-91 3,-130c51,-51 130,-37 157,28c30,72 -12,133 -91,133c-36,0 -48,-5 -69,-31z"></path></g></g></g></svg>